<svg width="74" height="74" viewBox="0 0 74 74" fill="none" xmlns="http://www.w3.org/2000/svg">
<g clip-path="url(#clip0_179_122)">
<path d="M51.2779 44.4945C50.1747 44.0899 49.1062 43.5948 48.0824 43.0112C46.4296 42.0694 44.8926 40.8998 43.5111 39.518C42.1149 38.1218 40.9531 36.5789 40.0231 34.9391C39.4376 33.9066 38.9446 32.8356 38.5437 31.7383C38.0852 30.4823 37.7467 29.1922 37.5299 27.8854L18.7942 54.1156C16.5936 56.1518 13.1472 56.1019 11.0095 53.964C8.81908 51.7731 8.81908 48.2088 11.0093 46.0187L24.0103 33.0178C28.5901 28.4376 28.5901 20.9855 24.0099 16.4054C19.4306 11.8264 11.9797 11.8258 7.39964 16.4037C7.39906 16.4045 7.39848 16.4048 7.39776 16.4056L0.897467 22.9061C-0.299252 24.1027 -0.299107 26.0431 0.897611 27.2398C1.49597 27.8381 2.28005 28.1372 3.06428 28.1372C3.84851 28.1372 4.63273 27.8378 5.23109 27.2395L11.7311 20.739L11.7317 20.7385C13.9222 18.5487 17.4856 18.5491 19.6758 20.739C21.8663 22.9296 21.8664 26.4938 19.676 28.6844L6.6751 41.6852C2.09578 46.2647 2.09578 53.717 6.6751 58.2974C8.9652 60.5876 11.9728 61.7324 14.981 61.7323C17.004 61.7322 19.0267 61.2114 20.8318 60.1754L24.7317 64.0753C25.325 64.6686 26.1094 64.9727 26.8994 64.9727C27.5195 64.9727 28.1433 64.7848 28.6796 64.4019L55.1293 45.5092C53.8099 45.2906 52.5219 44.9506 51.2779 44.4945Z" fill="#7F1CFC"/>
<path d="M69.5111 13.5148C66.6176 10.6209 62.77 9.02734 58.6773 9.02734C55.6261 9.02749 52.7116 9.91433 50.2266 11.5644L52.1754 13.5133L69.5112 30.849L71.4618 32.7997C73.1121 30.3145 73.9991 27.4 73.9989 24.349C73.9991 20.2564 72.405 16.4088 69.5111 13.5148Z" fill="#7F1CFC"/>
<path d="M67.0152 37.0186L64.8185 34.8221L62.6217 32.6253L50.4032 20.407L48.2065 18.2101L46.0097 16.0137L45.8964 15.9004C45.5821 16.3756 45.2992 16.8659 45.0436 17.3664C43.8305 19.7394 43.2752 22.3638 43.3796 24.9681C43.4365 26.3912 43.6919 27.8069 44.1424 29.1721C44.8678 31.3709 46.0992 33.4377 47.8452 35.1837V35.1839C49.5596 36.8983 51.6106 38.152 53.8474 38.8927C55.192 39.338 56.6032 39.5977 58.0511 39.6557C58.2595 39.6641 58.4685 39.671 58.6782 39.671C58.6788 39.671 58.6783 39.671 58.6791 39.671C61.1374 39.671 63.506 39.0916 65.6339 38.005C66.1471 37.7431 66.6474 37.4542 67.1301 37.1335L67.0152 37.0186Z" fill="#7F1CFC"/>
</g>
<defs>
<clipPath id="clip0_179_122">
<rect width="74" height="74" fill="white"/>
</clipPath>
</defs>
</svg>
