<svg width="530" height="149" viewBox="0 0 530 149" fill="none" xmlns="http://www.w3.org/2000/svg">
<g filter="url(#filter0_d_163_5518)">
<path d="M116.965 123.856C112.731 123.856 109.079 122.162 106.009 118.775C103.046 115.388 100.452 111.048 98.2295 105.756C96.0067 100.463 94.0485 95.0123 92.355 89.4023C88.4386 76.5948 86.798 68.9737 87.433 66.5393C81.188 74.9012 75.7898 81.8872 71.2384 87.4971C66.6869 93.0012 62.9823 97.1292 60.1244 99.8812C47.6344 111.948 34.9856 117.981 22.178 117.981C18.3675 117.981 15.245 117.187 12.8105 115.6C10.2702 114.012 9 111.366 9 107.661C9 105.332 9.52924 102.845 10.5877 100.199C11.6462 97.4467 12.9693 94.8535 14.557 92.419C16.1447 89.9845 17.7324 87.9734 19.3201 86.3857C22.8131 82.8927 25.7239 81.1462 28.0526 81.1462C28.476 81.1462 28.6876 81.2521 28.6876 81.4638C28.6876 81.993 27.8938 82.8927 26.3061 84.1629C22.6014 87.1266 19.5318 90.5667 17.0973 94.483C14.6628 98.2935 13.4456 101.787 13.4456 104.962C13.4456 110.889 17.6266 113.694 25.9885 113.377C39.6429 112.848 58.5896 96.3353 82.8287 63.8401C84.2047 62.0407 85.369 60.7706 86.3216 60.0296L83.7813 59.077C82.4053 59.6062 81.2939 59.8709 80.4471 59.8709C78.2243 59.8709 77.1129 58.9712 77.1129 57.1717C77.1129 54.7373 78.7535 53.1495 82.0348 52.4086C84.0459 51.8794 86.6392 52.7791 89.8146 55.1077C93.9427 50.4504 97.912 46.0048 101.722 41.7709C105.639 37.537 109.185 34.097 112.36 31.4508C115.536 28.6987 118.076 27.3227 119.981 27.3227C122.522 27.3227 123.792 28.4871 123.792 30.8157C123.792 31.7683 123.527 32.7739 122.998 33.8324C122.574 34.785 122.045 35.2613 121.41 35.2613C120.775 35.3671 120.457 35.0496 120.457 34.3087C120.457 33.7794 120.775 33.1443 121.41 32.4034V31.7683C121.41 31.1332 121.198 30.6569 120.775 30.3394C118.023 28.54 109.555 37.4841 95.3716 57.1717C96.5359 57.2776 97.7532 57.3834 99.0234 57.4893C100.399 57.4893 101.828 57.4893 103.31 57.4893C127.867 57.4893 143.215 51.1384 149.354 38.4367C150.624 35.6847 151.259 33.1443 151.259 30.8157C151.259 26.1584 149.089 22.0833 144.75 18.5903C140.833 15.4149 135.647 13.2979 129.19 12.2395C122.839 11.0751 116.488 10.493 110.137 10.493C96.0596 10.493 81.0822 14.3564 65.2051 22.0833C45.9408 31.5037 36.3087 42.5648 36.3087 55.2665C36.3087 59.3945 39.0078 61.4586 44.406 61.4586C49.3808 61.4586 54.9908 59.4475 61.2358 55.4253C66.634 51.8264 70.3387 48.1747 72.3498 44.47C73.0907 43.094 73.7787 42.406 74.4138 42.406C75.1547 42.406 75.3664 42.8294 75.0489 43.6762C73.0378 49.6036 68.5393 54.6843 61.5533 58.9182C54.7791 63.0463 47.7931 65.1103 40.5955 65.1103C32.0218 65.1103 28.0526 62.3583 28.6876 56.8542C30.2754 42.9882 38.7961 31.1862 54.2498 21.4482C69.5977 11.8161 88.1211 7 109.82 7C118.076 7 126.067 7.74093 133.794 9.2228C141.627 10.7047 147.978 13.4567 152.847 17.4789C157.928 21.7128 160.468 26.6876 160.468 32.4034C160.468 34.8379 159.886 37.4841 158.721 40.342C156.922 44.47 154.17 48.0159 150.465 50.9797C146.761 53.8375 142.474 56.1662 137.605 57.9656C132.736 59.765 127.602 61.0881 122.204 61.9349C116.806 62.7817 111.566 63.2051 106.486 63.2051C103.734 63.2051 101.087 63.0992 98.547 62.8875C96.1125 62.6758 93.8368 62.3583 91.7199 61.9349C92.355 63.946 93.4664 67.5977 95.0541 72.8901C96.6418 78.1825 98.6529 85.0626 101.087 93.5304C101.828 95.859 102.834 98.3994 104.104 101.151C105.48 103.903 107.015 106.497 108.708 108.931C110.402 111.366 112.201 113.377 114.107 114.965C116.118 116.552 118.129 117.346 120.14 117.346C124.586 117.346 128.29 112.848 131.254 103.851C131.783 101.734 132.365 100.675 133 100.675C133.53 100.675 134.006 101.681 134.429 103.692C134.535 104.009 134.588 104.433 134.588 104.962C134.588 107.714 133.106 111.101 130.143 115.123C126.226 120.945 121.834 123.856 116.965 123.856Z" fill="white"/>
<path d="M143.154 108.137C139.767 108.137 136.698 107.079 133.946 104.962C131.194 102.739 129.818 99.8283 129.818 96.2295C129.818 88.7143 134.422 80.1407 143.631 70.5085C153.051 60.7706 161.466 55.9016 168.875 55.9016C171.31 55.9016 173.268 56.5896 174.75 57.9656C176.338 59.2358 177.131 60.8235 177.131 62.7287C177.131 68.6562 172.421 74.4778 163.001 80.1936C154.639 85.2743 147.6 87.8146 141.884 87.8146C141.037 87.8146 140.296 87.7088 139.661 87.4971C138.074 90.355 137.28 93.3716 137.28 96.547C137.28 102.051 139.873 104.803 145.06 104.803C150.352 104.803 157.179 101.257 165.541 94.1655C171.998 88.9789 177.502 83.4749 182.053 77.6533C183.006 76.3831 183.853 75.748 184.594 75.748C185.229 75.748 185.546 76.0655 185.546 76.7006C185.546 77.3357 185.123 78.2354 184.276 79.3997C181.312 83.3161 178.137 86.9149 174.75 90.1962C171.363 93.4775 167.711 96.4941 163.795 99.2462C155.644 105.174 148.764 108.137 143.154 108.137ZM144.107 84.3216C148.129 84.3216 153.369 82.3105 159.825 78.2883C161.942 76.8065 164.006 75.1658 166.017 73.3664C168.134 71.4612 169.828 69.5559 171.098 67.6506C172.474 65.7454 173.162 64.0518 173.162 62.57C173.162 61.194 172.051 60.5059 169.828 60.5059C166.652 60.5059 162.207 62.8875 156.491 67.6506C153.739 69.9793 151.093 72.5196 148.553 75.2717C146.012 78.0237 143.842 80.9345 142.043 84.0041C142.678 84.2158 143.366 84.3216 144.107 84.3216Z" fill="white"/>
<path d="M179.487 138.621C176.1 138.621 173.136 137.193 170.596 134.335C168.055 131.371 166.838 128.09 166.944 124.491C168.214 126.079 169.908 127.931 172.025 130.048C174.777 132.694 177.476 134.017 180.122 134.017C186.155 134.017 192.665 129.201 199.651 119.569C202.085 116.182 204.573 112.212 207.113 107.661C209.759 103.215 212.247 98.2406 214.575 92.7365L220.609 78.1296L197.269 96.3883C190.072 101.998 184.303 104.803 179.963 104.803C177.635 104.803 175.782 103.956 174.406 102.263C173.03 100.569 172.342 98.8228 172.342 97.0234C172.342 92.4719 176.259 85.0097 184.091 74.6366C191.924 64.1577 197.799 58.9182 201.715 58.9182C204.996 58.9182 206.637 60.1355 206.637 62.57C206.637 63.5226 201.927 69.0267 192.506 79.0822C183.192 89.0319 178.534 95.7532 178.534 99.2462C178.534 100.622 179.434 101.31 181.233 101.31C184.621 101.31 191.977 96.9175 203.303 88.1322C207.96 84.4275 212.088 81.0404 215.687 77.9708C219.286 74.9012 222.302 72.1492 224.737 69.7147C225.584 68.6562 226.43 67.6507 227.277 66.698C228.124 65.6396 228.918 64.5811 229.659 63.5226C231.67 61.194 233.681 60.0296 235.692 60.0296C238.55 60.0296 239.979 61.194 239.979 63.5226C239.979 63.946 237.756 67.439 233.31 74.0015C230.982 77.6003 229.129 80.4053 227.753 82.4164C226.377 84.3216 225.584 85.5389 225.372 86.0681C222.091 92.419 217.063 101.681 210.289 113.853C200.021 130.365 189.754 138.621 179.487 138.621Z" fill="white"/>
<path d="M275.086 106.391C272.228 106.391 270.217 105.597 269.053 104.009C267.888 102.316 267.306 100.252 267.306 97.8172C267.306 91.6781 269.423 85.1155 273.657 78.1296L283.818 61.6173C276.621 66.9097 269.476 73.5252 262.384 81.4638C260.479 83.5807 258.309 86.0681 255.875 88.926C253.546 91.7839 250.953 95.0652 248.095 98.7698C244.284 103.745 242.009 106.232 241.268 106.232C239.786 106.232 238.568 105.597 237.616 104.327C236.663 102.951 236.187 101.734 236.187 100.675C236.187 99.8283 236.452 98.2935 236.981 96.0707C237.51 93.7421 238.145 91.731 238.886 90.0374C239.627 88.238 240.368 86.4915 241.109 84.798C241.956 82.9985 242.749 81.2521 243.49 79.5585L233.964 89.5611C233.752 89.7728 233.117 90.4079 232.059 91.4664C231 92.5248 230.154 93.0541 229.519 93.0541C228.989 93.0541 228.725 92.6836 228.725 91.9427C228.725 91.731 228.831 91.4664 229.042 91.1488C229.148 90.7254 229.466 90.2491 229.995 89.7199C231.583 88.1322 233.223 86.4386 234.917 84.6392C236.61 82.8398 238.357 80.7758 240.156 78.4471C241.109 77.2828 242.538 75.5363 244.443 73.2076C246.348 70.7732 248.412 68.1799 250.635 65.4279C252.964 62.6758 255.134 60.1355 257.145 57.8068C257.674 57.0659 258.256 56.5896 258.891 56.3779C259.526 56.0603 259.95 55.9016 260.161 55.9016C263.019 55.9016 264.448 57.013 264.448 59.2358C264.448 59.8709 264.289 60.5059 263.972 61.141C254.446 74.2661 248.73 84.2687 246.825 91.1488C259.103 78.8705 268.947 69.6618 276.356 63.5226C283.871 57.2776 289.217 54.1551 292.392 54.1551C294.086 54.1551 295.356 54.4197 296.202 54.9489C297.155 55.4782 297.631 56.4837 297.631 57.9656C297.631 58.4948 297.578 58.9182 297.473 59.2358C297.155 59.9767 294.985 62.9404 290.963 68.127C288.529 71.0907 286.359 73.7898 284.453 76.2243C282.654 78.6588 281.172 80.7758 280.008 82.5752C278.103 85.5389 276.674 88.3439 275.721 90.99C274.768 93.5304 274.292 95.7003 274.292 97.4997C274.292 98.2406 274.398 99.1403 274.61 100.199C274.821 101.257 275.456 101.786 276.515 101.786C278.949 101.786 282.76 99.6696 287.946 95.4356C290.381 93.3187 292.657 91.2017 294.774 89.0848C296.89 86.862 298.902 84.6921 300.807 82.5752C301.23 82.1518 301.918 81.3579 302.871 80.1936C303.823 78.9234 304.406 78.2883 304.617 78.2883C305.041 78.2883 305.252 78.7117 305.252 79.5585C305.252 79.9819 304.988 80.7228 304.459 81.7813C304.035 82.7339 303.559 83.4749 303.03 84.0041C301.865 85.3801 300.119 87.2854 297.79 89.7199C295.567 92.1544 293.027 94.6418 290.169 97.1821C287.417 99.7225 284.718 101.892 282.072 103.692C279.426 105.491 277.097 106.391 275.086 106.391Z" fill="white"/>
<path d="M305.462 106.391C302.816 106.391 300.752 105.174 299.27 102.739C297.788 100.199 297.047 97.7643 297.047 95.4356C297.047 89.0848 301.652 80.1936 310.86 68.7621C320.175 57.2247 327.69 51.456 333.406 51.456C338.804 51.456 341.503 54.3139 341.503 60.0296C341.503 60.8764 341.397 61.7761 341.186 62.7287C341.08 63.6814 340.921 64.6869 340.709 65.7454C340.921 66.0629 341.45 66.2217 342.297 66.2217C345.155 66.2217 348.542 65.2162 352.458 63.2051C352.353 65.0045 348.172 67.5977 339.915 70.9848C341.08 74.4778 337.587 81.1462 329.437 90.99C321.075 101.257 313.93 106.391 308.002 106.391H305.462ZM308.32 101.628C312.871 101.628 318.693 97.4468 325.785 89.0848C332.665 80.9345 336.105 75.06 336.105 71.4612C334.411 70.5085 332.294 68.074 329.754 64.1577C326.155 64.1577 320.969 68.4974 314.195 77.1769C307.526 85.6447 304.298 92.1544 304.509 96.7058C304.615 99.9871 305.885 101.628 308.32 101.628Z" fill="white"/>
<path d="M355.356 106.391C352.286 106.391 349.428 105.65 346.782 104.168C344.136 102.58 342.813 99.9871 342.813 96.3883C342.813 91.4134 344.56 85.486 348.052 78.6059C351.651 71.7258 355.726 64.5811 360.278 57.1717C372.662 37.0607 381.447 27.0052 386.634 27.0052C387.692 27.0052 388.751 27.4286 389.809 28.2754C390.974 29.0163 391.609 29.8631 391.715 30.8157L380.601 45.7402C376.261 51.5618 372.345 56.96 368.852 61.9349C365.359 66.8039 362.342 71.1965 359.802 75.1129C358.531 77.124 357.102 79.3997 355.515 81.9401C353.927 84.4804 352.498 87.1266 351.228 89.8786C350.064 92.5248 349.481 95.2239 349.481 97.976C349.481 99.2462 349.852 100.41 350.593 101.469C351.334 102.422 352.657 102.898 354.562 102.898C357.949 102.898 362.395 101.098 367.899 97.4997C373.403 93.795 378.854 88.7143 384.252 82.2576C384.782 81.6225 385.364 81.0404 385.999 80.5111C386.634 79.9819 387.163 79.7173 387.587 79.7173C388.116 79.7173 388.38 80.0348 388.38 80.6699C388.38 80.9875 388.01 81.6225 387.269 82.5752C386.634 83.4219 386.105 84.11 385.681 84.6392L381.871 88.926C379.754 91.2547 377.213 93.795 374.25 96.547C371.392 99.2991 368.322 101.628 365.041 103.533C361.866 105.438 358.637 106.391 355.356 106.391Z" fill="white"/>
<path d="M392.535 106.867C389.359 106.867 386.66 106.02 384.437 104.327C382.214 102.527 380.944 100.358 380.627 97.8172C380.203 94.4301 380.68 91.043 382.056 87.6558C383.537 84.1629 385.496 80.8287 387.93 77.6533C390.47 74.4778 393.17 71.5141 396.027 68.7621C407.247 57.5422 417.356 51.9323 426.353 51.9323C429.422 51.9323 431.486 52.7261 432.545 54.3139C432.968 54.8431 433.445 56.0603 433.974 57.9656C445.829 38.7013 454.085 29.0692 458.742 29.0692C459.801 29.0692 460.912 29.3338 462.076 29.8631C463.241 30.3923 463.823 31.0803 463.823 31.9271C463.823 32.4563 463.558 33.1444 463.029 33.9911C459.854 37.9075 456.678 41.8239 453.503 45.7402C450.327 49.5507 447.205 53.4142 444.135 57.3305C438.949 63.8931 434.768 69.6088 431.592 74.4778C428.417 79.3468 426.141 83.4749 424.765 86.862C424.342 87.9205 423.918 89.2436 423.495 90.8313C423.177 92.3131 423.019 93.8479 423.019 95.4356C423.019 97.4468 423.442 99.1932 424.289 100.675C425.136 102.157 426.67 102.898 428.893 102.898C432.386 102.898 436.673 101.204 441.754 97.8172C446.834 94.4301 452.762 88.8731 459.536 81.1462C459.959 80.7228 460.33 80.3524 460.647 80.0348C461.071 79.7173 461.494 79.5056 461.918 79.3997C462.87 79.188 463.347 79.3997 463.347 80.0348C463.347 80.3524 463.029 80.9345 462.394 81.7813C459.113 85.6977 455.461 89.5611 451.439 93.3716C447.416 97.1821 443.288 100.358 439.055 102.898C434.926 105.332 431.063 106.55 427.464 106.55C423.865 106.55 421.325 105.332 419.843 102.898C418.361 100.463 417.62 97.7114 417.62 94.6418C417.62 91.4664 418.203 88.5556 419.367 85.9094L406.506 98.7698C403.648 101.628 401.002 103.692 398.568 104.962C396.239 106.232 394.228 106.867 392.535 106.867ZM391.106 103.374C395.657 103.374 403.225 97.1292 413.81 84.6392C414.339 84.0041 416.191 81.6755 419.367 77.6533C422.542 73.5252 427.041 67.5448 432.862 59.7121C432.121 58.4419 430.851 57.8068 429.052 57.8068C422.489 57.8068 413.704 62.9934 402.696 73.3664C392.323 82.9986 387.136 91.0959 387.136 97.6585C387.136 101.469 388.459 103.374 391.106 103.374Z" fill="white"/>
<path d="M474.27 106.391C469.295 106.391 465.59 104.75 463.156 101.469C460.827 98.1877 458.922 93.6362 457.44 87.8146C455.534 89.7199 454.211 90.6725 453.47 90.6725C452.941 90.6725 452.677 90.2491 452.677 89.4023C452.677 88.7673 452.941 88.1851 453.47 87.6558C453.47 87.6558 454.794 86.0152 457.44 82.7339C460.192 79.4527 464.796 74.8483 471.253 68.9208L491.258 50.1858C494.01 47.5396 496.18 45.5285 497.768 44.1525C499.461 42.7765 500.678 42.0885 501.419 42.0885C504.807 42.0885 506.5 43.3586 506.5 45.899C506.5 47.1692 505.812 48.651 504.436 50.3446C503.378 51.6148 502.584 52.6203 502.054 53.3612C501.631 53.9963 501.366 54.3668 501.261 54.4726C499.355 57.7539 497.609 63.6285 496.021 72.0963C494.857 78.3413 493.851 83.4749 493.005 87.4971C492.158 91.5193 491.47 94.4301 490.94 96.2295C495.386 96.1237 499.779 94.7476 504.118 92.1015C508.458 89.4553 513.116 85.1155 518.09 79.0822C518.302 78.8705 518.62 78.553 519.043 78.1296C519.466 77.7062 519.89 77.4945 520.313 77.4945C520.948 77.4945 521.266 77.7591 521.266 78.2883C521.266 78.8176 521.107 79.3468 520.79 79.876C520.472 80.4053 520.154 80.8816 519.837 81.305C516.556 85.2214 513.486 88.4497 510.628 90.99C507.77 93.4245 504.754 95.3827 501.578 96.8646C498.403 98.2406 494.645 99.4049 490.305 100.358L485.225 103.692C483.849 104.644 482.208 105.332 480.303 105.756C478.398 106.179 476.386 106.391 474.27 106.391ZM476.175 98.2935C478.609 98.2935 480.62 97.7114 482.208 96.547C483.372 95.912 484.484 94.1655 485.542 91.3076C486.707 88.3439 487.818 84.6921 488.876 80.3524C489.723 76.6477 490.358 73.0489 490.782 69.5559C491.311 65.9571 491.787 62.517 492.211 59.2358L492.846 53.8375C490.411 55.637 487.342 58.2302 483.637 61.6173C479.932 65.0045 476.281 68.5504 472.682 72.255C469.083 75.9597 466.754 78.7117 465.696 80.5111C464.637 82.2047 464.055 83.4749 463.949 84.3216C463.526 88.5556 464.532 91.9427 466.966 94.483C469.506 97.0234 472.576 98.2935 476.175 98.2935Z" fill="white"/>
</g>
<defs>
<filter id="filter0_d_163_5518" x="0.744651" y="0.395721" width="528.776" height="148.132" filterUnits="userSpaceOnUse" color-interpolation-filters="sRGB">
<feFlood flood-opacity="0" result="BackgroundImageFix"/>
<feColorMatrix in="SourceAlpha" type="matrix" values="0 0 0 0 0 0 0 0 0 0 0 0 0 0 0 0 0 0 127 0" result="hardAlpha"/>
<feOffset dy="1.65107"/>
<feGaussianBlur stdDeviation="4.12767"/>
<feComposite in2="hardAlpha" operator="out"/>
<feColorMatrix type="matrix" values="0 0 0 0 0 0 0 0 0 0 0 0 0 0 0 0 0 0 0.7 0"/>
<feBlend mode="normal" in2="BackgroundImageFix" result="effect1_dropShadow_163_5518"/>
<feBlend mode="normal" in="SourceGraphic" in2="effect1_dropShadow_163_5518" result="shape"/>
</filter>
</defs>
</svg>
