<svg width="190" height="32" viewBox="0 0 190 32" fill="none" xmlns="http://www.w3.org/2000/svg">
<path d="M34.3397 26.8411C33.8961 26.8411 33.6004 26.729 33.4525 26.5047C33.009 25.8567 32.7872 25.0717 32.7872 24.1495C32.7872 22.0062 33.9208 18.9284 36.1879 14.9159C37.6418 12.3988 39.8843 9.00935 42.9154 4.74766C41.6339 5.81931 40.2416 7.05296 38.7384 8.4486C37.2352 9.84424 35.6211 11.3894 33.8961 13.0841C31.6536 15.3022 29.8177 17.2586 28.3885 18.9533C26.9838 20.6231 25.9735 22.0062 25.3574 23.1028C24.7167 24.2741 23.9404 24.8598 23.0287 24.8598C22.6097 24.8598 22.4003 24.7103 22.4003 24.4112C22.4003 24.3115 22.4372 24.2118 22.5112 24.1122C22.9301 23.4393 23.4722 22.5545 24.1376 21.4579C24.8029 20.3364 25.5915 19.0031 26.5033 17.4579C29.1647 12.7726 31.0745 9.04673 32.2327 6.28037C32.6517 5.23364 32.8611 4.47352 32.8611 4C32.8611 3.60125 32.7256 3.40187 32.4545 3.40187C32.0849 3.40187 31.5058 3.73832 30.7172 4.41121C27.9819 6.72897 24.9138 9.95639 21.5131 14.0935C20.0838 15.8131 18.8271 17.4081 17.7428 18.8785C16.6831 20.324 15.7837 21.6324 15.0444 22.8037C14.453 23.7259 14.1573 24.3863 14.1573 24.785C14.1573 24.9346 14.2065 25.0343 14.3051 25.0841C14.4283 25.1589 14.4899 25.1963 14.4899 25.1963C14.4899 25.2212 14.2682 25.4081 13.8246 25.757C13.4303 25.9564 12.9867 26.0561 12.4939 26.0561C11.4835 26.0561 11.0523 25.8193 11.2001 25.3458C11.5451 24.2243 12.691 22.1931 14.6378 19.2523C17.176 15.4393 18.8271 12.8349 19.591 11.4393C21.2421 8.42368 22.0676 6.01869 22.0676 4.2243C22.0676 2.97819 21.7472 2.09346 21.1065 1.57009C20.4658 1.04673 19.4924 0.785046 18.1864 0.785046C15.3032 0.785046 12.3214 2.04361 9.24103 4.56075C7.91033 5.65732 6.66587 6.90343 5.50766 8.29907C4.34945 9.66978 3.41302 11.1028 2.69838 12.5981C1.98374 14.0935 1.62642 15.5639 1.62642 17.0093C1.62642 19.6012 2.83392 20.8972 5.24891 20.8972C8.08282 20.8972 10.276 19.8629 11.8285 17.7944C12.42 16.972 12.7157 16.1994 12.7157 15.4766C12.7157 15.053 12.5925 14.7664 12.346 14.6168C12.3214 14.5919 12.3091 14.5545 12.3091 14.5047C12.3091 14.405 12.383 14.3551 12.5308 14.3551C13.1716 14.3551 13.4919 14.7788 13.4919 15.6262C13.4919 16.1495 13.2701 16.81 12.8266 17.6075C12.2598 18.6044 11.4096 19.4517 10.276 20.1495C8.84675 21.0467 7.26961 21.4953 5.54462 21.4953C3.86891 21.4953 2.52588 20.9595 1.51553 19.8879C0.505177 18.8162 0 17.4081 0 15.6636C0 11.7259 2.5382 7.70093 7.61461 3.58879C8.55104 2.84112 9.65996 2.20561 10.9414 1.68224C12.2475 1.13396 13.5905 0.722741 14.9705 0.448597C16.3505 0.149532 17.6196 0 18.7778 0C20.4535 0 21.7226 0.286604 22.5851 0.859813C23.4722 1.4081 23.9158 2.38006 23.9158 3.7757C23.9158 5.52025 23.2135 7.87539 21.8088 10.8411C21.3653 11.7632 20.3672 13.4455 18.8147 15.8879L21.661 12.2243C22.3756 11.2773 23.3367 10.1558 24.5442 8.85981C25.7517 7.56386 27.181 6.09346 28.832 4.4486C29.5467 3.75078 30.3599 3.15265 31.2717 2.6542C32.1834 2.15576 32.9597 1.90654 33.6004 1.90654C34.4875 1.90654 34.9311 2.38006 34.9311 3.3271C34.9311 4.14953 34.5984 5.27103 33.9331 6.69159C33.0459 8.58567 31.937 10.7913 30.6063 13.3084C30.1874 14.081 29.904 14.7414 29.7561 15.2897C29.6083 15.838 29.5097 16.1495 29.4604 16.2243C29.559 16.0997 29.7931 15.8131 30.1627 15.3645C30.557 14.891 31.0992 14.2555 31.7892 13.4579C32.627 12.5109 33.625 11.4766 34.7833 10.3551C35.9415 9.20872 37.2722 7.98754 38.7754 6.69159L44.6896 1.75701C45.1579 1.35826 45.5768 1.15888 45.9464 1.15888C46.2914 1.15888 46.5378 1.37072 46.6857 1.79439C46.8582 2.19315 47.0307 2.71651 47.2032 3.36449C47.3264 3.78816 46.735 4.6729 45.4289 6.01869C42.3486 9.20872 39.6872 12.7726 37.4447 16.7103C35.3993 20.3489 34.3766 22.9782 34.3766 24.5981C34.3766 25.3209 34.6108 25.6822 35.079 25.6822C35.3747 25.6822 36.114 25.4206 37.2968 24.8972C38.3318 24.4237 39.0095 24.1495 39.3298 24.0748C39.4531 24.1246 39.5147 24.1869 39.5147 24.2617C39.5147 24.6355 38.8616 25.1589 37.5556 25.8318C36.2741 26.5047 35.2022 26.8411 34.3397 26.8411Z" fill="white"/>
<path d="M49.5594 11.4766C49.1405 11.4766 48.7708 11.3396 48.4505 11.0654C48.1547 10.7913 48.0069 10.4798 48.0069 10.1308C48.0069 9.43302 48.4751 9.08411 49.4115 9.08411C49.7565 9.08411 50.1015 9.20872 50.4465 9.45794C50.7915 9.68224 50.964 9.96885 50.964 10.3178C50.964 10.6168 50.8038 10.891 50.4835 11.1402C50.1631 11.3645 49.8551 11.4766 49.5594 11.4766ZM42.721 24.7477C42.1789 24.7477 41.7353 24.5732 41.3903 24.2243C41.0207 23.8505 40.8358 23.2025 40.8358 22.2804C40.8358 21.757 40.9591 21.1589 41.2055 20.486C41.4273 19.7882 41.7107 19.0903 42.0557 18.3925C42.4253 17.6947 42.7826 17.0717 43.1276 16.5234C44.5076 14.2555 45.6412 13.109 46.5283 13.0841C46.7501 13.0841 47.0212 13.1838 47.3415 13.3832C47.6619 13.5576 47.8221 13.757 47.8221 13.9813C47.8221 13.9813 46.8856 15.2025 45.0128 17.6449C43.1646 20.0623 42.2405 21.7819 42.2405 22.8037C42.2405 23.6012 42.5485 24 43.1646 24C43.5589 24 44.064 23.838 44.6801 23.514C45.3208 23.1651 45.9862 22.729 46.6762 22.2056C47.3662 21.6822 48.0192 21.1215 48.6353 20.5234C49.276 19.9252 49.7935 19.3769 50.1878 18.8785C50.4342 18.5545 50.6437 18.3302 50.8162 18.2056C51.0133 18.081 51.1365 18.0187 51.1858 18.0187C51.2844 18.0187 51.3337 18.0935 51.3337 18.243C51.3337 18.3676 51.1858 18.6168 50.8901 18.9907C50.619 19.3645 50.2371 19.8006 49.7442 20.2991C49.1528 20.8972 48.4997 21.5452 47.7851 22.243C47.0705 22.9408 46.2942 23.5389 45.4564 24.0374C44.6185 24.5109 43.7067 24.7477 42.721 24.7477Z" fill="white"/>
<path d="M52.2055 24.5234C51.6141 24.5234 51.0226 24.3115 50.4312 23.8879C49.8398 23.4642 49.5071 22.9657 49.4332 22.3925C49.1868 20.4735 50.3819 18.1931 53.0187 15.5514C55.6308 12.9097 57.9842 11.5888 60.0788 11.5888C60.6456 11.5888 61.0892 11.7259 61.4096 12C61.5821 12.1745 61.7053 12.4112 61.7792 12.7103C61.8778 13.0093 61.9517 13.1589 62.001 13.1589C62.0996 13.1589 62.1858 13.1464 62.2597 13.1215C62.3337 13.0717 62.4199 13.0467 62.5185 13.0467C62.8142 13.0467 63.0729 13.1589 63.2947 13.3832C63.5165 13.6075 63.6397 13.8069 63.6644 13.9813C63.689 14.0312 62.9004 15.2648 61.2987 17.6822C59.6969 20.0498 58.9699 21.6573 59.1178 22.5047C59.241 23.0779 59.5121 23.3645 59.931 23.3645C61.2124 23.3645 63.5535 21.2212 66.9542 16.9346C67.0281 16.8349 67.102 16.785 67.176 16.785C67.2992 16.785 67.3608 16.8723 67.3608 17.0467C67.3608 17.2461 67.2499 17.4953 67.0281 17.7944C63.8985 22.0561 61.4958 24.1869 59.8201 24.1869C59.5983 24.1869 59.3889 24.1495 59.1917 24.0748C58.1074 23.6511 57.5653 22.8287 57.5653 21.6075C57.5653 21.1838 57.6146 20.7601 57.7131 20.3364L55.4214 22.5794C54.7314 23.2773 54.103 23.7757 53.5362 24.0748C52.9941 24.3738 52.5505 24.5234 52.2055 24.5234ZM51.8728 23.7009C53.3021 23.7009 55.2489 22.1184 57.7131 18.9533L61.6313 13.4953C61.4342 13.1464 61.1138 12.972 60.6703 12.972C59.1671 12.972 57.134 14.1931 54.5712 16.6355C51.9098 19.1277 50.7146 21.1838 50.9857 22.8037C51.1089 23.4019 51.4046 23.7009 51.8728 23.7009Z" fill="white"/>
<path d="M95.8731 28.5234C94.8874 28.5234 94.0372 28.1246 93.3226 27.3271C92.6326 26.5296 92.0289 25.5078 91.5114 24.2617C90.9939 23.0156 90.538 21.7321 90.1437 20.4112C89.2319 17.3956 88.8499 15.6012 88.9978 15.028C87.5439 16.9969 86.2871 18.6417 85.2275 19.9626C84.1678 21.2586 83.3053 22.2305 82.64 22.8785C79.7321 25.7196 76.7873 27.1402 73.8055 27.1402C72.9184 27.1402 72.1914 26.9533 71.6247 26.5794C71.0332 26.2056 70.7375 25.5826 70.7375 24.7103C70.7375 24.162 70.8607 23.5763 71.1072 22.9533C71.3536 22.3053 71.6616 21.6947 72.0313 21.1215C72.4009 20.5483 72.7705 20.0748 73.1402 19.7009C73.9534 18.8785 74.6311 18.4673 75.1732 18.4673C75.2718 18.4673 75.3211 18.4922 75.3211 18.5421C75.3211 18.6667 75.1362 18.8785 74.7666 19.1776C73.9041 19.8754 73.1895 20.6854 72.6227 21.6075C72.0559 22.5047 71.7725 23.3271 71.7725 24.0748C71.7725 25.4704 72.7459 26.1308 74.6927 26.0561C77.8716 25.9315 82.2826 22.0436 87.9258 14.3925C88.2462 13.9688 88.5173 13.6698 88.7391 13.4953L88.1476 13.271C87.8273 13.3956 87.5685 13.4579 87.3714 13.4579C86.8539 13.4579 86.5951 13.2461 86.5951 12.8224C86.5951 12.2492 86.9771 11.8754 87.741 11.7009C88.2092 11.5763 88.813 11.7882 89.5523 12.3364C90.5133 11.2399 91.4374 10.1931 92.3246 9.19626C93.2364 8.19938 94.0619 7.38941 94.8012 6.76635C95.5405 6.11838 96.1319 5.79439 96.5754 5.79439C97.1669 5.79439 97.4626 6.06854 97.4626 6.61682C97.4626 6.84112 97.401 7.07788 97.2778 7.3271C97.1792 7.5514 97.056 7.66355 96.9081 7.66355C96.7603 7.68847 96.6863 7.61371 96.6863 7.43925C96.6863 7.31464 96.7603 7.16511 96.9081 6.99065V6.84112C96.9081 6.69159 96.8588 6.57944 96.7603 6.50467C96.1196 6.081 94.1481 8.18692 90.846 12.8224C91.1171 12.8474 91.4005 12.8723 91.6962 12.8972C92.0165 12.8972 92.3492 12.8972 92.6942 12.8972C98.4113 12.8972 101.985 11.4019 103.414 8.41121C103.71 7.76324 103.857 7.16511 103.857 6.61682C103.857 5.52025 103.352 4.56075 102.342 3.73832C101.43 2.99065 100.223 2.49221 98.7194 2.24299C97.2408 1.96885 95.7622 1.83177 94.2837 1.83177C91.0062 1.83177 87.5192 2.74143 83.8228 4.56075C79.3378 6.77882 77.0953 9.38318 77.0953 12.3738C77.0953 13.3458 77.7237 13.8318 78.9805 13.8318C80.1387 13.8318 81.4448 13.3583 82.8987 12.4112C84.1555 11.5639 85.018 10.704 85.4862 9.83178C85.6587 9.50779 85.8189 9.34579 85.9667 9.34579C86.1392 9.34579 86.1885 9.44548 86.1146 9.64486C85.6464 11.0405 84.5991 12.2368 82.9726 13.2336C81.3955 14.2056 79.7691 14.6916 78.0934 14.6916C76.0973 14.6916 75.1732 14.0436 75.3211 12.7477C75.6907 9.48287 77.6745 6.70405 81.2723 4.41121C84.8455 2.1433 89.158 1.00935 94.2097 1.00935C96.1319 1.00935 97.9924 1.1838 99.7913 1.53271C101.615 1.88162 103.093 2.5296 104.227 3.47664C105.41 4.47352 106.001 5.64486 106.001 6.99065C106.001 7.56386 105.866 8.18692 105.595 8.85981C105.176 9.83178 104.535 10.6667 103.673 11.3645C102.81 12.0374 101.812 12.5857 100.678 13.0093C99.5449 13.433 98.3497 13.7445 97.0929 13.9439C95.8362 14.1433 94.6163 14.243 93.4335 14.243C92.7928 14.243 92.1767 14.2181 91.5853 14.1682C91.0185 14.1184 90.4887 14.0436 89.9958 13.9439C90.1437 14.4174 90.4024 15.2773 90.7721 16.5234C91.1417 17.7695 91.6099 19.3894 92.1767 21.3832C92.3492 21.9315 92.5833 22.5296 92.879 23.1776C93.1994 23.8255 93.5567 24.4361 93.951 25.0093C94.3453 25.5826 94.7642 26.0561 95.2078 26.4299C95.676 26.8037 96.1442 26.9907 96.6124 26.9907C97.6474 26.9907 98.5099 25.9315 99.1999 23.8131C99.3231 23.3146 99.4587 23.0654 99.6065 23.0654C99.7297 23.0654 99.8406 23.3022 99.9392 23.7757C99.9638 23.8505 99.9762 23.9502 99.9762 24.0748C99.9762 24.7227 99.6311 25.5202 98.9412 26.4673C98.0294 27.838 97.0067 28.5234 95.8731 28.5234Z" fill="white"/>
<path d="M101.97 24.8224C101.182 24.8224 100.467 24.5732 99.8266 24.0748C99.1858 23.5514 98.8655 22.866 98.8655 22.0187C98.8655 20.2492 99.9375 18.2305 102.081 15.9626C104.275 13.6698 106.234 12.5234 107.959 12.5234C108.525 12.5234 108.981 12.6854 109.326 13.0093C109.696 13.3084 109.881 13.6822 109.881 14.1308C109.881 15.5265 108.784 16.8972 106.591 18.243C104.644 19.4393 103.005 20.0374 101.675 20.0374C101.478 20.0374 101.305 20.0125 101.157 19.9626C100.788 20.6355 100.603 21.3458 100.603 22.0935C100.603 23.3894 101.207 24.0374 102.414 24.0374C103.646 24.0374 105.236 23.2025 107.182 21.5327C108.686 20.3115 109.967 19.0156 111.027 17.6449C111.248 17.3458 111.446 17.1963 111.618 17.1963C111.766 17.1963 111.84 17.271 111.84 17.4206C111.84 17.5701 111.741 17.7819 111.544 18.0561C110.854 18.9782 110.115 19.8255 109.326 20.5981C108.538 21.3707 107.688 22.081 106.776 22.729C104.878 24.1246 103.277 24.8224 101.97 24.8224ZM102.192 19.215C103.129 19.215 104.349 18.7414 105.852 17.7944C106.345 17.4455 106.825 17.0592 107.293 16.6355C107.786 16.1869 108.18 15.7383 108.476 15.2897C108.797 14.8411 108.957 14.4424 108.957 14.0935C108.957 13.7695 108.698 13.6075 108.18 13.6075C107.441 13.6075 106.406 14.1682 105.075 15.2897C104.435 15.838 103.819 16.4361 103.227 17.0841C102.636 17.7321 102.131 18.4174 101.712 19.1402C101.86 19.19 102.02 19.215 102.192 19.215Z" fill="white"/>
<path d="M110.429 32C109.641 32 108.951 31.6636 108.359 30.9907C107.768 30.2928 107.484 29.5202 107.509 28.6729C107.805 29.0467 108.199 29.4829 108.692 29.9813C109.333 30.6044 109.961 30.9159 110.577 30.9159C111.982 30.9159 113.497 29.7819 115.124 27.514C115.69 26.7165 116.27 25.7819 116.861 24.7103C117.477 23.6636 118.056 22.4922 118.598 21.1963L120.003 17.757L114.569 22.0561C112.893 23.3769 111.55 24.0374 110.54 24.0374C109.998 24.0374 109.567 23.838 109.246 23.4393C108.926 23.0405 108.766 22.6293 108.766 22.2056C108.766 21.134 109.678 19.3769 111.501 16.9346C113.325 14.4673 114.692 13.2336 115.604 13.2336C116.368 13.2336 116.75 13.5202 116.75 14.0935C116.75 14.3178 115.653 15.6137 113.46 17.9813C111.292 20.324 110.207 21.9065 110.207 22.729C110.207 23.053 110.417 23.215 110.836 23.215C111.624 23.215 113.337 22.1807 115.974 20.1122C117.058 19.2399 118.019 18.4424 118.857 17.7196C119.695 16.9969 120.397 16.3489 120.964 15.7757C121.161 15.5265 121.358 15.2897 121.555 15.0654C121.753 14.8162 121.937 14.567 122.11 14.3178C122.578 13.7695 123.046 13.4953 123.515 13.4953C124.18 13.4953 124.513 13.7695 124.513 14.3178C124.513 14.4174 123.995 15.2399 122.96 16.785C122.418 17.6324 121.987 18.2928 121.666 18.7664C121.346 19.215 121.161 19.5016 121.112 19.6262C120.348 21.1215 119.177 23.3022 117.6 26.1682C115.21 30.0561 112.82 32 110.429 32Z" fill="white"/>
<path d="M132.686 24.4112C132.021 24.4112 131.552 24.2243 131.281 23.8505C131.01 23.4517 130.875 22.9657 130.875 22.3925C130.875 20.947 131.368 19.4019 132.353 17.757L134.719 13.8692C133.043 15.1153 131.38 16.6729 129.729 18.5421C129.285 19.0405 128.78 19.6262 128.213 20.2991C127.671 20.972 127.067 21.7445 126.402 22.6168C125.515 23.7882 124.985 24.3738 124.813 24.3738C124.468 24.3738 124.184 24.2243 123.962 23.9252C123.741 23.6012 123.63 23.3146 123.63 23.0654C123.63 22.866 123.691 22.5047 123.815 21.9813C123.938 21.433 124.086 20.9595 124.258 20.5607C124.431 20.1371 124.603 19.7259 124.776 19.3271C124.973 18.9034 125.158 18.4922 125.33 18.0935L123.112 20.4486C123.063 20.4984 122.915 20.648 122.669 20.8972C122.422 21.1464 122.225 21.271 122.077 21.271C121.954 21.271 121.892 21.1838 121.892 21.0093C121.892 20.9595 121.917 20.8972 121.966 20.8224C121.991 20.7227 122.065 20.6106 122.188 20.486C122.558 20.1122 122.94 19.7134 123.334 19.2897C123.728 18.866 124.135 18.3801 124.554 17.8318C124.776 17.5576 125.108 17.1464 125.552 16.5981C125.995 16.0249 126.476 15.4143 126.993 14.7664C127.536 14.1184 128.041 13.5202 128.509 12.972C128.632 12.7975 128.768 12.6854 128.916 12.6355C129.063 12.5607 129.162 12.5234 129.211 12.5234C129.877 12.5234 130.209 12.785 130.209 13.3084C130.209 13.4579 130.172 13.6075 130.098 13.757C127.881 16.8474 126.55 19.2025 126.106 20.8224C128.965 17.9315 131.257 15.7632 132.982 14.3178C134.731 12.8474 135.976 12.1121 136.715 12.1121C137.109 12.1121 137.405 12.1745 137.602 12.2991C137.824 12.4237 137.935 12.6604 137.935 13.0093C137.935 13.134 137.923 13.2336 137.898 13.3084C137.824 13.4829 137.319 14.1807 136.382 15.4019C135.816 16.0997 135.31 16.7352 134.867 17.3084C134.448 17.8816 134.103 18.3801 133.832 18.8037C133.388 19.5016 133.056 20.162 132.834 20.785C132.612 21.3832 132.501 21.8941 132.501 22.3178C132.501 22.4922 132.526 22.7041 132.575 22.9533C132.624 23.2025 132.772 23.3271 133.019 23.3271C133.585 23.3271 134.473 22.8287 135.68 21.8318C136.247 21.3333 136.777 20.8349 137.27 20.3364C137.762 19.8131 138.231 19.3022 138.674 18.8037C138.773 18.704 138.933 18.5171 139.155 18.243C139.376 17.9439 139.512 17.7944 139.561 17.7944C139.66 17.7944 139.709 17.8941 139.709 18.0935C139.709 18.1931 139.648 18.3676 139.524 18.6168C139.426 18.8411 139.315 19.0156 139.192 19.1402C138.921 19.4642 138.514 19.9128 137.972 20.486C137.454 21.0592 136.863 21.6449 136.198 22.243C135.557 22.8411 134.928 23.352 134.312 23.7757C133.696 24.1994 133.154 24.4112 132.686 24.4112Z" fill="white"/>
<path d="M139.758 24.4112C139.142 24.4112 138.661 24.1246 138.316 23.5514C137.971 22.9533 137.799 22.3801 137.799 21.8318C137.799 20.3364 138.871 18.243 141.015 15.5514C143.183 12.8349 144.933 11.4766 146.264 11.4766C147.52 11.4766 148.149 12.1495 148.149 13.4953C148.149 13.6947 148.124 13.9065 148.075 14.1308C148.05 14.3551 148.013 14.5919 147.964 14.8411C148.013 14.9159 148.136 14.9533 148.334 14.9533C148.999 14.9533 149.788 14.7165 150.699 14.243C150.675 14.6667 149.701 15.2773 147.779 16.0748C148.05 16.8972 147.237 18.4673 145.34 20.785C143.393 23.2025 141.729 24.4112 140.349 24.4112H139.758ZM140.423 23.2897C141.483 23.2897 142.838 22.3053 144.489 20.3364C146.091 18.4174 146.892 17.0343 146.892 16.1869C146.498 15.9626 146.005 15.3894 145.413 14.4673C144.576 14.4673 143.368 15.4891 141.791 17.5327C140.238 19.5265 139.487 21.0592 139.536 22.1308C139.561 22.9034 139.857 23.2897 140.423 23.2897Z" fill="white"/>
<path d="M151.374 24.4112C150.659 24.4112 149.994 24.2368 149.378 23.8879C148.762 23.514 148.454 22.9034 148.454 22.0561C148.454 20.8847 148.86 19.4891 149.674 17.8692C150.511 16.2492 151.46 14.567 152.52 12.8224C155.403 8.08723 157.448 5.71963 158.656 5.71963C158.902 5.71963 159.149 5.81931 159.395 6.01869C159.666 6.19315 159.814 6.39252 159.839 6.61682L157.251 10.1308C156.241 11.5016 155.329 12.7726 154.516 13.9439C153.703 15.0903 153 16.1246 152.409 17.0467C152.113 17.5202 151.781 18.0561 151.411 18.6542C151.041 19.2523 150.709 19.8754 150.413 20.5234C150.142 21.1464 150.006 21.7819 150.006 22.4299C150.006 22.729 150.093 23.0031 150.265 23.2523C150.437 23.4766 150.746 23.5888 151.189 23.5888C151.978 23.5888 153.013 23.1651 154.294 22.3178C155.576 21.4455 156.845 20.2492 158.101 18.729C158.225 18.5794 158.36 18.4424 158.508 18.3178C158.656 18.1931 158.779 18.1308 158.878 18.1308C159.001 18.1308 159.062 18.2056 159.062 18.3551C159.062 18.4299 158.976 18.5794 158.804 18.8037C158.656 19.0031 158.533 19.1651 158.434 19.2897L157.547 20.2991C157.054 20.8474 156.463 21.4455 155.773 22.0935C155.107 22.7414 154.393 23.2897 153.629 23.7383C152.889 24.1869 152.138 24.4112 151.374 24.4112Z" fill="white"/>
<path d="M160.03 24.5234C159.29 24.5234 158.662 24.324 158.144 23.9252C157.627 23.5016 157.331 22.9907 157.257 22.3925C157.159 21.595 157.27 20.7975 157.59 20C157.935 19.1776 158.391 18.3925 158.958 17.6449C159.549 16.8972 160.177 16.1994 160.843 15.5514C163.455 12.9097 165.808 11.5888 167.903 11.5888C168.618 11.5888 169.098 11.7757 169.345 12.1495C169.443 12.2741 169.554 12.5607 169.677 13.0093C172.437 8.47352 174.359 6.20561 175.444 6.20561C175.69 6.20561 175.949 6.26791 176.22 6.39252C176.491 6.51713 176.626 6.67913 176.626 6.87851C176.626 7.00312 176.565 7.16511 176.442 7.36449C175.702 8.2866 174.963 9.20872 174.224 10.1308C173.485 11.028 172.758 11.9377 172.043 12.8598C170.835 14.405 169.862 15.7508 169.123 16.8972C168.383 18.0436 167.854 19.0156 167.533 19.8131C167.435 20.0623 167.336 20.3738 167.238 20.7477C167.164 21.0966 167.127 21.4579 167.127 21.8318C167.127 22.3053 167.225 22.7165 167.422 23.0654C167.62 23.4143 167.977 23.5888 168.494 23.5888C169.308 23.5888 170.306 23.19 171.488 22.3925C172.671 21.595 174.051 20.2866 175.628 18.4673C175.727 18.3676 175.813 18.2804 175.887 18.2056C175.986 18.1308 176.084 18.081 176.183 18.0561C176.405 18.0062 176.516 18.0561 176.516 18.2056C176.516 18.2804 176.442 18.4174 176.294 18.6168C175.53 19.5389 174.68 20.4486 173.743 21.3458C172.807 22.243 171.846 22.9907 170.86 23.5888C169.899 24.162 169 24.4486 168.162 24.4486C167.324 24.4486 166.732 24.162 166.387 23.5888C166.042 23.0156 165.87 22.3676 165.87 21.6449C165.87 20.8972 166.005 20.2118 166.277 19.5888L163.282 22.6168C162.617 23.2897 162.001 23.7757 161.434 24.0748C160.892 24.3738 160.424 24.5234 160.03 24.5234ZM159.697 23.7009C160.757 23.7009 162.519 22.2305 164.983 19.2897C165.106 19.1402 165.537 18.5919 166.277 17.6449C167.016 16.6729 168.063 15.2648 169.418 13.4206C169.246 13.1215 168.95 12.972 168.531 12.972C167.004 12.972 164.958 14.1931 162.395 16.6355C159.98 18.9034 158.773 20.81 158.773 22.3551C158.773 23.2523 159.081 23.7009 159.697 23.7009Z" fill="white"/>
<path d="M179.059 24.4112C177.9 24.4112 177.038 24.0249 176.471 23.2523C175.929 22.4798 175.485 21.4081 175.14 20.0374C174.697 20.486 174.389 20.7103 174.216 20.7103C174.093 20.7103 174.031 20.6106 174.031 20.4112C174.031 20.2617 174.093 20.1246 174.216 20C174.216 20 174.524 19.6137 175.14 18.8411C175.781 18.0685 176.853 16.9844 178.356 15.5888L183.014 11.1776C183.654 10.5545 184.16 10.081 184.529 9.75701C184.924 9.43302 185.207 9.27103 185.379 9.27103C186.168 9.27103 186.562 9.57009 186.562 10.1682C186.562 10.4673 186.402 10.8162 186.082 11.215C185.835 11.514 185.651 11.7508 185.527 11.9252C185.429 12.0748 185.367 12.162 185.343 12.1869C184.899 12.9595 184.492 14.3427 184.123 16.3364C183.852 17.8069 183.618 19.0156 183.42 19.9626C183.223 20.9097 183.063 21.595 182.94 22.0187C183.975 21.9938 184.998 21.6698 186.008 21.0467C187.018 20.4237 188.103 19.4019 189.261 17.9813C189.31 17.9315 189.384 17.8567 189.483 17.757C189.581 17.6573 189.68 17.6075 189.778 17.6075C189.926 17.6075 190 17.6698 190 17.7944C190 17.919 189.963 18.0436 189.889 18.1682C189.815 18.2928 189.741 18.405 189.667 18.5047C188.903 19.4268 188.189 20.1869 187.523 20.785C186.858 21.3583 186.156 21.8193 185.416 22.1682C184.677 22.4922 183.802 22.7664 182.792 22.9907L181.609 23.7757C181.289 24 180.907 24.162 180.463 24.2617C180.02 24.3614 179.551 24.4112 179.059 24.4112ZM179.502 22.5047C180.069 22.5047 180.537 22.3676 180.907 22.0935C181.178 21.9439 181.437 21.5327 181.683 20.8598C181.954 20.162 182.213 19.3022 182.459 18.2804C182.656 17.4081 182.804 16.5607 182.903 15.7383C183.026 14.891 183.137 14.081 183.236 13.3084L183.383 12.0374C182.817 12.4611 182.102 13.0717 181.24 13.8692C180.377 14.6667 179.527 15.5016 178.689 16.3738C177.851 17.2461 177.309 17.8941 177.063 18.3178C176.816 18.7165 176.681 19.0156 176.656 19.215C176.557 20.2118 176.791 21.0093 177.358 21.6075C177.95 22.2056 178.664 22.5047 179.502 22.5047Z" fill="white"/>
</svg>
